<?xml version="1.0" standalone="no"?>
<!DOCTYPE svg PUBLIC "-//W3C//DTD SVG 20010904//EN"
 "http://www.w3.org/TR/2001/REC-SVG-20010904/DTD/svg10.dtd">
<svg version="1.0" xmlns="http://www.w3.org/2000/svg"
 width="407.000000pt" height="407.000000pt" viewBox="0 0 407.000000 407.000000"
 preserveAspectRatio="xMidYMid meet">

<g transform="translate(0.000000,407.000000) scale(0.100000,-0.100000)"
fill="#000000" stroke="none">
<path d="M1972 3848 c-9 -4 -43 -7 -75 -7 -158 -2 -489 -120 -681 -243 -33
-21 -64 -38 -70 -38 -5 0 -22 11 -36 25 -40 41 -119 104 -148 119 -68 35 -198
59 -337 64 -159 5 -380 -11 -402 -29 -26 -22 -54 -93 -60 -149 -9 -98 55 -267
155 -410 25 -36 101 -119 168 -185 93 -92 138 -128 190 -154 38 -19 84 -48
102 -63 18 -15 37 -28 42 -28 14 0 0 -99 -20 -145 -23 -53 -49 -196 -57 -316
-5 -77 -2 -116 15 -195 11 -54 26 -126 32 -159 23 -116 109 -324 187 -450 37
-60 49 -101 62 -216 10 -91 19 -116 84 -248 54 -107 145 -195 246 -235 83 -34
232 -41 272 -13 13 10 31 17 41 17 9 0 32 12 50 28 86 72 255 86 411 34 47
-16 106 -42 131 -59 44 -29 94 -42 199 -48 21 -2 72 8 114 22 78 25 107 48
195 155 55 67 118 170 118 194 0 12 9 43 21 68 11 27 25 90 31 144 10 88 14
101 48 147 43 57 139 261 165 350 54 183 78 431 56 566 -5 30 -14 87 -21 128
-7 41 -18 88 -25 105 -7 17 -15 48 -19 69 -7 36 -6 38 44 69 27 17 50 34 50
38 0 4 26 19 58 33 31 13 68 36 81 51 14 14 31 26 38 26 24 0 243 232 272 288
7 15 26 41 41 57 15 17 32 44 38 60 6 17 24 66 40 110 25 68 29 91 26 155 -3
53 -10 87 -25 116 -21 40 -26 42 -96 58 -40 9 -96 16 -124 16 -28 0 -59 5 -69
10 -22 12 -270 -4 -334 -21 -101 -27 -211 -91 -265 -153 -33 -38 -66 -66 -78
-66 -7 0 -18 9 -25 20 -7 11 -17 20 -21 20 -5 0 -23 11 -41 25 -18 14 -36 25
-40 25 -3 0 -41 20 -84 44 -160 92 -594 204 -670 174z m271 -81 c54 -13 99
-26 101 -28 2 -2 11 -47 20 -99 10 -52 64 -250 122 -439 99 -326 104 -348 104
-432 l0 -90 -91 -136 c-51 -75 -94 -144 -96 -154 -3 -10 24 -49 73 -105 85
-97 113 -150 114 -206 0 -49 48 -138 152 -284 99 -137 120 -177 142 -261 34
-131 15 -286 -56 -457 -27 -65 -47 -94 -108 -157 -61 -62 -86 -81 -135 -99
-112 -41 -248 -30 -305 25 -25 24 -152 75 -187 75 -14 0 -15 15 -10 112 l7
113 86 173 87 172 72 0 c122 0 121 -34 17 421 l-89 394 54 328 55 328 -109
162 c-84 125 -112 175 -124 224 l-17 63 89 0 89 0 0 44 c0 42 -2 44 -32 49
-28 5 -154 20 -263 31 -36 4 -318 -29 -334 -38 -12 -8 -15 -45 -5 -70 5 -13
24 -16 101 -16 78 0 94 -3 90 -14 -3 -8 -9 -30 -12 -50 -4 -19 -56 -109 -119
-205 l-113 -170 55 -329 55 -329 -83 -364 c-45 -200 -89 -374 -96 -386 -26
-42 -10 -53 80 -53 l81 0 79 -158 c44 -86 85 -164 92 -172 6 -8 15 -44 18 -80
4 -36 9 -86 12 -111 l6 -47 -54 -12 c-71 -17 -149 -52 -171 -78 -27 -30 -107
-46 -197 -39 -83 5 -150 30 -117 42 31 12 41 43 22 71 -20 31 -50 31 -70 0
-13 -20 -14 -29 -4 -47 10 -20 7 -19 -27 8 -21 17 -49 42 -61 55 -33 36 -99
164 -129 253 -24 69 -27 96 -28 200 0 100 4 130 22 180 29 76 84 166 171 279
88 113 119 170 132 243 14 81 17 88 103 188 42 48 76 95 76 102 0 7 -43 78
-96 158 l-97 144 6 98 c4 87 16 134 105 428 55 182 107 362 115 400 12 54 15
62 16 34 2 -71 5 -72 187 -53 150 16 171 16 323 0 123 -12 167 -14 177 -5 15
12 19 105 6 126 -14 23 -326 37 -515 23 -93 -6 -171 -10 -173 -7 -5 5 128 38
221 56 83 17 278 5 388 -22z m-1547 -37 c95 -12 203 -47 265 -85 52 -32 129
-104 129 -120 0 -7 -18 -26 -41 -44 l-40 -33 -54 54 c-136 139 -302 205 -525
209 l-85 2 80 12 c104 16 172 17 271 5z m2904 -9 c44 -8 44 -9 -22 -10 -199
-4 -383 -77 -515 -207 l-66 -64 -44 36 -44 36 32 36 c69 80 177 139 304 167
67 14 285 18 355 6z m-1332 -50 c1 0 2 -8 2 -17 0 -12 -8 -14 -42 -10 -206 28
-282 28 -496 0 -39 -5 -43 -3 -40 13 5 28 225 42 423 27 83 -7 151 -12 153
-13z m-1653 -36 c125 -33 264 -116 322 -192 l25 -33 -80 -87 c-91 -101 -178
-217 -233 -311 l-37 -64 -93 88 c-198 191 -299 371 -299 535 l0 68 58 6 c31 4
62 8 67 11 22 9 213 -6 270 -21z m3153 0 c20 -7 22 -14 22 -76 0 -123 -55
-247 -174 -396 -62 -76 -212 -221 -220 -212 -2 2 -31 45 -63 94 -66 100 -154
211 -232 295 -35 37 -49 60 -45 72 10 34 129 130 209 169 114 56 183 69 345
64 74 -2 145 -6 158 -10z m-834 -219 c62 -53 170 -163 226 -231 l41 -50 -76
-71 c-66 -62 -92 -78 -215 -133 -93 -42 -148 -73 -167 -94 -16 -18 -40 -42
-55 -55 l-26 -23 18 53 c9 29 57 187 105 351 49 163 90 297 93 297 3 0 28 -20
56 -44z m-1719 -317 l103 -341 -62 60 c-52 51 -80 68 -191 117 -116 51 -138
65 -199 125 l-69 69 28 38 c78 103 269 292 283 279 3 -3 51 -159 107 -347z
m854 283 c6 -21 14 -53 17 -72 4 -18 56 -108 116 -198 l109 -164 -23 -144
c-13 -79 -25 -144 -28 -144 -3 0 -10 10 -15 22 -6 13 -23 29 -40 37 -26 13
-33 12 -65 -5 -30 -17 -35 -24 -38 -61 -4 -52 22 -83 71 -83 38 0 77 24 77 47
0 9 2 14 5 12 4 -4 -29 -215 -38 -242 -1 -4 -47 63 -102 148 -64 100 -105 155
-116 155 -11 0 -55 -56 -121 -154 -56 -85 -104 -153 -106 -151 -2 2 -25 132
-51 289 l-47 286 107 160 c89 134 110 172 124 230 l17 70 69 0 68 0 10 -38z
m1244 -413 c15 -25 27 -50 27 -55 0 -5 -56 -43 -125 -84 -69 -41 -127 -80
-129 -87 -3 -6 5 -34 16 -62 12 -28 20 -53 17 -55 -3 -3 -32 6 -65 19 -133 54
-265 59 -367 12 -76 -35 -66 -16 49 91 78 73 99 86 222 142 123 55 144 68 206
130 l70 68 26 -36 c14 -21 38 -58 53 -83z m-2477 39 c56 -53 86 -72 198 -121
126 -56 135 -62 224 -150 50 -50 92 -94 92 -98 0 -3 -23 6 -51 20 -100 49
-271 39 -400 -23 -27 -12 -49 -22 -49 -20 0 2 12 35 27 74 22 60 24 73 12 81
-8 5 -62 39 -121 75 -121 75 -116 58 -51 167 19 31 39 57 44 57 5 0 38 -28 75
-62z m1384 -318 c24 -24 25 -48 5 -77 -22 -32 -64 -35 -92 -7 -28 28 -29 44
-2 78 25 31 61 34 89 6z m-967 -77 c26 -8 70 -32 97 -54 40 -32 50 -45 50 -70
0 -26 -6 -33 -42 -49 -51 -23 -144 -26 -191 -6 -51 21 -114 107 -129 176 -6
31 122 33 215 3z m1680 11 c14 -5 13 -11 -1 -51 -33 -88 -121 -162 -194 -163
-15 0 -57 10 -93 21 -58 20 -65 25 -65 48 0 30 4 36 46 74 51 46 138 76 221
77 39 0 78 -3 86 -6z m-823 -184 l94 -145 43 -184 c23 -102 41 -187 39 -189
-2 -1 -14 10 -26 25 -51 65 -252 263 -267 263 -9 0 -81 -66 -161 -147 -79 -82
-142 -141 -140 -133 3 8 22 89 42 180 l38 165 111 167 c83 122 115 163 123
155 6 -7 53 -77 104 -157z m-1110 105 c28 -69 88 -137 143 -164 52 -25 132
-28 203 -6 27 8 50 15 52 15 1 0 2 -13 2 -30 0 -26 -5 -30 -42 -41 -60 -16
-157 -6 -215 22 -26 13 -71 46 -98 75 -59 60 -122 169 -103 177 28 12 37 5 58
-48z m2039 46 c11 -7 8 -19 -18 -64 -45 -79 -111 -148 -172 -181 -62 -34 -172
-46 -233 -26 -30 10 -36 16 -36 41 0 34 -4 33 51 13 59 -21 150 -19 202 4 56
25 118 94 147 165 24 57 33 64 59 48z m-1529 -204 c0 -7 -11 -24 -25 -37 l-25
-23 0 74 0 74 25 -37 c14 -20 25 -43 25 -51z m1010 6 l0 -66 -25 23 c-14 13
-25 30 -25 37 0 12 39 73 47 73 2 0 3 -30 3 -67z m-1147 -185 c-10 -18 -22
-45 -28 -60 -7 -18 -55 -59 -145 -123 -134 -95 -135 -95 -150 -74 -8 12 -30
36 -47 53 l-33 31 203 102 c111 56 205 102 210 102 4 1 0 -14 -10 -31z m1409
-85 c94 -60 176 -111 182 -115 6 -4 -3 -19 -21 -38 l-30 -31 -119 82 c-65 45
-124 83 -130 86 -6 2 -17 16 -24 31 -28 60 -40 92 -35 92 4 0 83 -48 177 -107z
m-532 -355 l0 -110 -52 44 c-29 23 -84 69 -122 101 -38 31 -73 57 -77 57 -4 0
-59 -41 -121 -92 -62 -50 -119 -96 -125 -101 -10 -7 -13 15 -13 104 l0 114
127 129 128 129 127 -133 128 -132 0 -110z m915 290 c-19 -144 -83 -332 -162
-477 l-46 -85 -24 73 c-13 40 -35 92 -49 116 l-25 43 56 94 c40 67 83 120 153
189 53 52 99 96 100 97 2 1 1 -22 -3 -50z m-2237 -63 c40 -38 85 -96 123 -158
l59 -98 -34 -72 c-19 -40 -38 -89 -41 -109 -4 -21 -10 -38 -14 -38 -12 0 -88
143 -124 235 -40 100 -73 221 -83 299 l-7 51 29 -25 c16 -14 57 -52 92 -85z
m752 -269 l0 -124 -30 -11 c-16 -5 -30 -7 -30 -3 -1 10 55 262 58 262 1 0 2
-56 2 -124z m664 -41 c14 -60 24 -111 22 -112 -2 -2 -15 6 -29 18 -26 20 -27
24 -26 122 0 56 2 98 4 92 3 -5 15 -59 29 -120z m-329 96 c3 -5 48 -44 100
-86 l95 -76 -57 -30 c-55 -28 -64 -29 -173 -28 -103 1 -118 3 -145 23 -16 13
-36 25 -43 27 -12 4 193 178 210 179 4 0 9 -4 13 -9z m-203 -251 c21 -16 48
-20 154 -26 126 -7 130 -6 181 20 29 14 59 26 67 26 11 0 -7 -46 -65 -160
l-80 -160 -79 0 -79 0 -75 149 c-42 83 -76 155 -76 160 0 17 25 13 52 -9z
m-425 -616 c3 -8 -2 -23 -11 -32 -15 -15 -17 -15 -32 0 -21 21 -11 48 16 48
11 0 23 -7 27 -16z"/>
<path d="M1202 1234 c-29 -20 -31 -79 -3 -94 32 -17 69 -12 85 12 22 31 20 45
-9 73 -28 29 -42 31 -73 9z m68 -25 c15 -26 7 -47 -22 -58 -16 -6 -28 -4 -40
7 -22 19 -23 36 -2 56 22 22 51 20 64 -5z"/>
<path d="M1347 1218 c-47 -17 -48 -90 -1 -108 33 -13 73 6 81 38 11 47 -34 86
-80 70z m44 -18 c28 -16 25 -58 -6 -72 -19 -8 -28 -8 -40 2 -20 17 -19 57 3
69 21 13 20 13 43 1z"/>
<path d="M2640 1210 c-11 -11 -20 -29 -20 -40 0 -27 35 -60 63 -60 31 0 57 29
57 63 0 53 -61 76 -100 37z m80 -20 c8 -14 8 -26 0 -40 -19 -35 -80 -20 -80
20 0 40 61 55 80 20z"/>
<path d="M2512 1194 c-45 -31 -17 -104 41 -104 28 0 57 32 57 62 0 23 -35 58
-58 58 -10 0 -28 -7 -40 -16z m72 -26 c16 -26 -4 -53 -40 -53 -25 0 -30 4 -32
29 -6 46 47 63 72 24z"/>
<path d="M1466 1187 c-39 -29 -10 -107 40 -107 30 0 66 46 58 74 -13 43 -62
59 -98 33z m72 -19 c34 -34 -13 -82 -57 -59 -24 13 -26 23 -11 52 12 21 50 25
68 7z"/>
<path d="M2375 1165 c-29 -28 -31 -42 -9 -73 16 -24 53 -29 85 -12 28 15 26
74 -3 94 -31 22 -45 20 -73 -9z m62 -3 c24 -15 20 -55 -7 -68 -21 -11 -27 -11
-42 3 -22 20 -23 37 -2 57 17 18 32 20 51 8z"/>
<path d="M1595 1150 c-24 -27 -13 -68 22 -76 20 -5 31 -2 45 16 23 28 23 35
-2 60 -25 25 -42 25 -65 0z m60 -21 c7 -22 -7 -39 -33 -39 -16 0 -26 25 -18
45 8 23 44 18 51 -6z"/>
<path d="M2256 1134 c-19 -18 -20 -28 -6 -55 12 -22 59 -26 78 -7 26 26 1 78
-38 78 -10 0 -26 -7 -34 -16z m61 -20 c3 -8 -2 -23 -11 -32 -15 -15 -17 -15
-32 0 -21 21 -11 48 16 48 11 0 23 -7 27 -16z"/>
<path d="M1270 1061 c-14 -27 -13 -47 6 -65 32 -32 94 -10 94 34 0 46 -79 70
-100 31z m74 -13 c5 -8 6 -23 3 -32 -9 -23 -61 -18 -65 7 -8 39 40 59 62 25z"/>
<path d="M2576 1058 c-21 -29 -20 -41 2 -61 37 -34 92 -16 92 29 0 51 -66 73
-94 32z m71 -14 c8 -22 -10 -49 -32 -49 -22 0 -40 27 -32 49 8 21 56 21 64 0z"/>
<path d="M1402 1054 c-41 -29 -19 -94 32 -94 47 0 65 52 31 86 -28 28 -33 29
-63 8z m58 -19 c6 -8 9 -23 5 -35 -10 -31 -59 -24 -63 9 -6 37 34 55 58 26z"/>
<path d="M2462 1048 c-7 -7 -12 -24 -12 -38 0 -33 17 -50 50 -50 33 0 50 17
50 50 0 14 -5 31 -12 38 -15 15 -61 15 -76 0z m60 -60 l-22 -22 -22 22 -23 23
24 20 c24 20 24 20 45 -1 l20 -20 -22 -22z"/>
<path d="M1517 1032 c-20 -22 -22 -63 -5 -80 7 -7 24 -12 38 -12 14 0 31 5 38
12 20 20 14 65 -10 82 -29 21 -41 20 -61 -2z m57 -18 c20 -19 5 -54 -24 -54
-29 0 -44 35 -24 54 8 9 19 16 24 16 5 0 16 -7 24 -16z"/>
<path d="M2342 1028 c-17 -17 -15 -63 2 -77 24 -20 69 -9 85 21 14 24 14 28
-3 47 -21 23 -65 28 -84 9z m78 -33 c0 -26 -29 -46 -51 -35 -24 13 -25 46 -2
59 21 11 53 -3 53 -24z"/>
<path d="M1644 1010 c-42 -16 -40 -66 2 -76 30 -8 54 11 54 42 0 28 -27 45
-56 34z m34 -33 c4 -20 -25 -34 -39 -20 -14 14 1 45 20 41 9 -2 17 -11 19 -21z"/>
<path d="M2240 995 c-21 -25 3 -67 37 -63 34 4 52 31 37 56 -15 23 -57 27 -74
7z m60 -25 c0 -13 -7 -20 -19 -20 -22 0 -35 15 -26 30 12 19 45 11 45 -10z"/>
<path d="M2548 939 c-28 -16 -23 -67 7 -81 21 -9 28 -8 45 7 26 24 25 50 -2
69 -26 19 -27 19 -50 5z m50 -37 c4 -28 -24 -40 -45 -19 -14 13 -14 19 -3 32
18 22 44 15 48 -13z"/>
<path d="M1440 914 c-10 -11 -11 -23 -4 -42 17 -48 84 -38 84 12 0 43 -53 63
-80 30z m63 -41 c-7 -19 -42 -16 -50 3 -4 10 1 22 12 30 15 12 20 11 30 -3 7
-10 11 -23 8 -30z"/>
<path d="M2422 918 c-7 -7 -12 -21 -12 -33 0 -12 5 -26 12 -33 7 -7 21 -12 33
-12 12 0 26 5 33 12 7 7 12 21 12 33 0 12 -5 26 -12 33 -7 7 -21 12 -33 12
-12 0 -26 -5 -33 -12z m54 -23 c10 -25 -3 -44 -25 -38 -20 5 -28 32 -14 46 11
12 33 7 39 -8z"/>
<path d="M2954 3266 c-39 -33 -39 -89 0 -122 81 -71 188 45 111 121 -31 32
-75 32 -111 1z"/>
<path d="M2815 3100 c-42 -46 -10 -120 52 -120 42 0 73 30 73 70 0 62 -84 95
-125 50z"/>
<path d="M922 3260 c-30 -28 -38 -68 -21 -99 43 -77 144 -60 156 26 5 35 2 45
-20 67 -32 32 -84 35 -115 6z"/>
<path d="M1067 3093 c-14 -17 -21 -42 -18 -70 2 -24 41 -53 69 -53 60 0 94 78
52 120 -25 25 -81 26 -103 3z"/>
<path d="M1963 3285 c-61 -26 -72 -97 -24 -146 37 -37 79 -38 120 -3 80 67 0
190 -96 149z m72 -17 c53 -24 46 -120 -10 -134 -63 -16 -114 37 -93 97 14 42
58 58 103 37z"/>
<path d="M1965 3053 c-37 -10 -73 -43 -89 -84 -22 -54 -8 -106 39 -148 30 -26
44 -31 87 -31 45 0 54 4 89 39 34 34 39 44 39 85 0 64 -23 104 -73 127 -43 19
-56 21 -92 12z"/>
<path d="M1790 2717 c-77 -39 -51 -147 36 -147 46 0 74 29 74 78 0 61 -57 97
-110 69z m79 -33 c27 -34 26 -50 -2 -78 -28 -28 -70 -25 -92 7 -20 29 -19 49
5 75 28 30 64 28 89 -4z"/>
<path d="M1010 576 c0 -74 3 -137 8 -139 15 -9 422 -18 422 -10 0 5 -5 14 -12
21 -9 9 -9 17 2 36 18 34 16 104 -3 123 -14 14 -15 12 -5 -24 7 -29 6 -52 -3
-84 -7 -24 -12 -47 -11 -52 1 -4 -85 -6 -190 -5 l-193 3 0 125 0 125 100 6
100 5 -107 2 -108 2 0 -134z"/>
<path d="M1300 703 c1 -5 21 -17 45 -29 39 -18 43 -18 35 -3 -5 9 -24 22 -41
28 -38 13 -39 13 -39 4z"/>
<path d="M1960 628 c0 -46 3 -167 7 -270 l6 -188 49 0 48 0 1 108 c1 59 3 180
4 270 l3 162 -59 0 -59 0 0 -82z m100 -63 l0 -135 -40 0 -40 0 0 135 0 135 40
0 40 0 0 -135z"/>
<path d="M1110 550 l0 -70 89 0 c98 0 125 12 137 62 4 21 0 33 -20 52 -23 24
-32 26 -116 26 l-90 0 0 -70z m202 25 c8 -19 8 -31 0 -50 -11 -24 -16 -25 -97
-25 l-85 0 0 50 0 50 85 0 c81 0 86 -1 97 -25z"/>
<path d="M1587 530 c-26 -16 -47 -34 -47 -40 0 -6 19 2 43 19 72 51 150 53
207 4 l30 -25 0 26 c0 24 3 26 45 26 l45 0 0 -55 0 -55 -56 0 c-41 0 -63 5
-81 20 -32 25 -88 26 -128 2 -20 -12 -46 -17 -78 -16 -56 3 -67 -10 -67 -81 0
-60 19 -103 63 -142 55 -48 124 -64 186 -42 35 12 37 18 16 60 -13 24 -20 28
-41 23 -35 -9 -81 13 -104 51 -35 57 -20 109 42 141 40 21 87 11 120 -24 23
-24 26 -38 31 -130 4 -56 9 -107 12 -112 3 -6 26 -10 51 -10 l44 0 0 195 0
195 -55 0 c-42 0 -55 -3 -55 -15 0 -19 -19 -19 -44 0 -12 9 -42 15 -76 15 -45
0 -65 -6 -103 -30z"/>
<path d="M2344 545 c21 -7 51 -26 67 -41 l29 -28 0 32 c0 31 2 32 40 32 l40 0
0 -60 0 -60 -51 0 c-40 0 -55 5 -68 21 -12 15 -32 23 -67 26 -43 5 -54 2 -82
-22 -27 -23 -39 -26 -84 -24 l-53 3 -3 -41 c-4 -51 42 -148 88 -187 27 -22 41
-26 100 -26 80 0 95 11 79 57 -9 29 -13 30 -53 26 -38 -5 -45 -2 -74 31 -17
19 -34 52 -38 72 -6 34 -4 40 27 66 42 35 71 43 111 32 57 -17 73 -52 76 -175
l4 -109 47 0 48 0 7 186 c4 103 5 188 4 189 -2 1 -29 5 -60 8 -46 4 -58 3 -58
-9 0 -17 -1 -17 -36 1 -16 8 -40 15 -54 14 -20 0 -18 -2 14 -14z"/>
<path d="M2736 553 c-3 -4 -40 -6 -81 -4 l-75 2 0 -163 c0 -207 1 -208 55
-208 l42 0 7 46 c3 26 6 104 6 173 l0 126 26 -30 25 -30 -16 33 c-15 32 -15
32 10 42 51 19 93 8 130 -35 l20 -23 40 34 c37 33 25 37 -19 8 -17 -11 -23
-10 -48 11 -21 18 -41 25 -72 25 -24 0 -46 -3 -50 -7z m-56 -73 l0 -60 -45 0
-45 0 0 60 0 60 45 0 45 0 0 -60z"/>
<path d="M3015 549 c49 -12 82 -42 95 -88 14 -51 14 -51 -31 -51 -32 0 -46 6
-61 25 -26 33 -80 35 -102 3 -21 -29 -90 -27 -123 4 -13 12 -25 19 -28 16 -3
-2 4 -13 15 -23 18 -16 20 -31 20 -142 l0 -123 49 0 49 0 4 119 c3 130 16 161
64 161 40 0 52 -35 58 -155 2 -60 5 -110 5 -110 1 0 24 -1 51 -3 l50 -3 0 136
c0 93 -4 146 -14 169 -19 46 -61 76 -105 75 l-36 -1 40 -9z"/>
<path d="M2199 519 l-24 -20 28 17 c15 9 27 18 27 20 0 8 -8 4 -31 -17z"/>
<path d="M2145 470 c-10 -11 -16 -22 -14 -24 2 -2 12 7 22 20 22 29 17 32 -8
4z"/>
<path d="M1034 403 c-9 -9 -12 -45 -11 -115 l2 -103 43 -3 42 -3 0 105 0 106
119 0 c135 0 146 -5 146 -72 0 -55 -21 -68 -112 -68 -76 0 -79 -2 -67 -47 6
-21 12 -23 84 -23 l77 0 51 49 c46 44 52 55 52 90 0 22 -4 51 -10 65 l-9 25
-197 3 c-148 2 -201 0 -210 -9z"/>
</g>
</svg>
